HIERARCHY
ROOT Hips
{
	OFFSET 0.00000 0.00000 0.00000
	CHANNELS 6 Xposition Yposition Zposition Zrotation Yrotation Xrotation 
	JOINT LHipJoint
	{
		OFFSET 0 0 0
		CHANNELS 3 Zrotation Yrotation Xrotation
		JOINT LeftHip
		{
			OFFSET 1.66553 -1.82942 0.76350
			CHANNELS 3 Zrotation Yrotation Xrotation
			JOINT LeftKnee
			{
				OFFSET 2.41740 -6.64177 0.00000
				CHANNELS 3 Zrotation Yrotation Xrotation
				JOINT LeftAnkle
				{
					OFFSET 2.71614 -7.46254 0.00000
					CHANNELS 3 Zrotation Yrotation Xrotation
					JOINT LeftToe
					{
						OFFSET 0.08005 -0.21993 1.82495
						CHANNELS 3 Zrotation Yrotation Xrotation
						End Site
						{
							OFFSET 0.00000 -0.00000 0.93441
						}
					}
				}
			}
		}
	}
	JOINT RHipJoint
	{
		OFFSET 0 0 0
		CHANNELS 3 Zrotation Yrotation Xrotation
		JOINT RightHip
		{
			OFFSET -1.63725 -1.82942 0.76350
			CHANNELS 3 Zrotation Yrotation Xrotation
			JOINT RightKnee
			{
				OFFSET -2.40538 -6.60872 0.00000
				CHANNELS 3 Zrotation Yrotation Xrotation
				JOINT RightAnkle
				{
					OFFSET -2.73312 -7.50919 0.00000
					CHANNELS 3 Zrotation Yrotation Xrotation
					JOINT RightToe
					{
						OFFSET -0.15567 -0.42769 1.93504
						CHANNELS 3 Zrotation Yrotation Xrotation
						End Site
						{
							OFFSET -0.00000 -0.00000 1.00100
						}
					}
				}
			}
		}
	}
	JOINT lowerback
	{
		OFFSET 0 0 0
		CHANNELS 3 Zrotation Yrotation Xrotation
		JOINT Chest
		{
			OFFSET 0.00326 2.30118 -0.13017
			CHANNELS 3 Zrotation Yrotation Xrotation
			JOINT Chest2
			{
				OFFSET 0.02887 2.30677 0.00834
				CHANNELS 3 Zrotation Yrotation Xrotation
				JOINT lowerneck
				{
					OFFSET 0 0 0
					CHANNELS 3 Zrotation Yrotation Xrotation
					JOINT Neck
					{
						OFFSET 0.12946 1.68326 0.00713
						CHANNELS 3 Zrotation Yrotation Xrotation
						JOINT Head
						{
							OFFSET -0.24364 1.67243 -0.16079
							CHANNELS 3 Zrotation Yrotation Xrotation
							End Site
							{
								OFFSET -0.09229 1.70819 -0.06383
							}
						}
					}
				}
				JOINT LeftCollar
				{
					OFFSET 0 0 0
					CHANNELS 3 Zrotation Yrotation Xrotation
					JOINT LeftShoulder
					{
						OFFSET 3.28104 0.69567 -0.00556
CHANNELS 3 Zrotation Xrotation Yrotation
						JOINT LeftElbow
						{
OFFSET 0 -5.707060 -0.000000
CHANNELS 3 Zrotation Xrotation Yrotation
							JOINT LeftWrist
							{
OFFSET 0 -3.332430 0.000000
CHANNELS 3 Zrotation Xrotation Yrotation
								JOINT lhand
								{
									OFFSET 0 0 0
CHANNELS 3 Zrotation Xrotation Yrotation
									JOINT LFingers
									{
OFFSET 0 -0.792690 0.000000
CHANNELS 3 Zrotation Xrotation Yrotation
										End Site
										{
OFFSET 0 -0.639090 0.000000
										}
									}
								}
								JOINT LThumb
								{
OFFSET 0 0.000000 0.000000
CHANNELS 3 Zrotation Xrotation Yrotation
									End Site
									{
OFFSET 0 -0.648840 0.648840
									}
								}
							}
						}
					}
				}
				JOINT RightCollar
				{
					OFFSET 0 0 0
					CHANNELS 3 Zrotation Yrotation Xrotation
					JOINT RightShoulder
					{
						OFFSET -3.40955 0.64424 0.14010
CHANNELS 3 Zrotation Xrotation Yrotation
						JOINT RightElbow
						{
OFFSET 0 -5.881760 -0.000000
CHANNELS 3 Zrotation Xrotation Yrotation
							JOINT RightWrist
							{
OFFSET 0 -3.281560 0.000000
CHANNELS 3 Zrotation Xrotation Yrotation
								JOINT rhand
								{
									OFFSET 0 0 0
CHANNELS 3 Zrotation Xrotation Yrotation
									JOINT RFingers
									{
OFFSET 0 -0.863130 0.000000
CHANNELS 3 Zrotation Xrotation Yrotation
										End Site
										{
OFFSET 0 -0.695870 0.000000
										}
									}
								}
								JOINT RThumb
								{
OFFSET 0 0.000000 0.000000
CHANNELS 3 Zrotation Xrotation Yrotation
									End Site
									{
OFFSET 0 -0.706500 0.706500
									}
								}
							}
						}
					}
				}
			}
		}
	}
}
MOTION
Frames: 10
Frame Time: 0.008333333333333333
10.359100 16.660700 -10.178800 -162.982000 -86.904500 159.189000 0.000000 0.000000 0.000000 -17.847000 21.571300 -25.397100 7.731400 15.918100 51.589300 2.998000 -4.484500 -31.776000 0.000700 -0.172100 -0.472700 0.000000 0.000000 0.000000 21.237900 -11.792200 -17.910100 -7.146700 -15.454200 49.427200 -3.429800 10.195300 -33.521300 -2.119400 -9.110400 26.141200 1.894600 -2.153600 5.599200 0.335900 -2.728500 -0.881700 -0.465600 -1.395700 -4.122600 16.611000 7.857500 3.628300 -18.161400 11.004300 -1.887600 -8.154800 5.620400 0.842200 -0.000000 -0.000000 0.000000 41.427700 18.044800 -80.491300 36.768600 -46.034500 16.073300 7.319000 10.613200 0.064000 0.000000 0.000000 0.000000 -7.125000 0.000000 0.000000 -15.025600 29.733800 -5.775400 -0.000000 -0.000000 0.000000 -44.593900 3.337200 78.721900 -61.060600 -56.586000 -35.225000 14.185000 36.823500 -33.998900 0.000000 0.000000 0.000000 7.125000 0.000000 -0.000000 25.053200 -2.174500 28.857700
10.271247 17.162655 -10.235335 -151.952452 -86.501342 149.615649 0.000000 0.000000 0.000000 -17.945774 18.162038 -21.363167 5.691731 14.122099 43.730313 2.404964 0.424726 -29.528984 0.006824 -0.393855 -1.082367 0.000000 0.000000 0.000000 23.143365 -10.475745 -13.279726 -4.604232 -12.922584 39.081412 -2.705682 7.963928 -29.705309 -2.815255 -10.389757 30.248356 3.112548 -1.985834 2.742569 0.375860 -2.512149 -2.350590 -1.194963 -1.339154 -4.080166 15.561806 7.963515 2.621792 -16.439307 11.175787 0.329921 -7.328512 5.644447 1.505317 0.000000 0.000000 0.000000 39.274645 17.144603 -80.453356 35.862010 -45.417519 15.424294 7.146303 10.232697 -2.633707 0.000000 0.000000 0.000000 -7.125000 0.000000 0.000000 -15.597595 32.351653 -4.991967 0.000000 0.000000 0.000000 -39.521951 7.270533 77.836174 -48.306835 -52.285191 -24.829400 13.912559 35.927128 -31.408660 0.000000 0.000000 0.000000 7.125000 0.000000 0.000000 25.105011 0.240603 27.826504
10.278166 17.453096 -10.292772 -159.157000 -86.279886 157.665037 0.000000 0.000000 0.000000 -18.491975 14.524787 -18.300503 4.638867 12.965058 39.238113 1.882836 4.258626 -27.734930 0.274722 -3.219527 -8.902245 0.000000 0.000000 0.000000 23.533411 -9.180217 -10.190156 -3.242059 -11.076826 32.539542 -2.257394 5.878428 -27.197174 -2.814806 -10.388490 30.244685 2.940670 -1.658047 1.665857 0.501642 -2.120615 -3.311282 -1.008684 -1.160841 -4.438710 15.081454 8.071674 2.288492 -16.477640 11.290652 0.619415 -7.234996 5.679418 1.637914 0.000000 0.000000 0.000000 33.626163 15.341249 -77.172513 30.659416 -41.449134 11.844801 11.212889 10.711668 -5.846004 0.000000 0.000000 0.000000 -7.125000 0.000000 0.000000 -12.911062 35.683387 -3.019843 0.000000 0.000000 0.000000 -33.238046 9.327080 74.405206 -35.237120 -44.976027 -14.982225 11.304215 36.106507 -31.564831 0.000000 0.000000 0.000000 7.125000 0.000000 0.000000 23.775622 0.127376 26.082560
10.385683 17.409175 -10.309157 -164.370945 -85.230985 162.885015 0.000000 0.000000 0.000000 -18.085266 13.786703 -17.268164 4.430334 12.712037 38.299782 2.148071 2.001703 -28.482517 0.428179 -4.197085 -11.632155 0.000000 0.000000 0.000000 23.569460 -8.508276 -11.168800 -3.482476 -11.437814 33.771136 -2.256468 6.592581 -27.118598 -2.817459 -10.393520 30.260817 3.419001 -1.241026 2.435368 0.488019 -1.510668 -3.434494 -1.305729 -0.882945 -4.995467 14.908420 8.335031 1.889659 -16.662213 11.526135 -0.138980 -7.244249 5.782646 1.526307 0.000000 0.000000 0.000000 26.452886 13.416842 -70.074418 24.023586 -35.188671 7.720349 19.903014 14.583203 -10.220820 0.000000 0.000000 0.000000 -7.125000 0.000000 0.000000 -6.299572 40.755498 -0.663436 0.000000 0.000000 0.000000 -25.447396 7.813750 70.301537 -23.686211 -34.829538 -7.527065 8.755096 36.771335 -31.720796 0.000000 0.000000 0.000000 7.125000 0.000000 0.000000 22.453995 -0.037425 24.426074
10.526160 17.176970 -10.341668 -177.272756 -84.951909 174.528359 0.000000 0.000000 0.000000 -18.622692 15.552647 -18.986898 5.275856 13.687034 41.999634 2.422614 -0.074750 -29.477396 0.177030 -2.708758 -7.469119 0.000000 0.000000 0.000000 22.119379 -8.716041 -13.760383 -4.765747 -13.114621 39.799858 -2.556331 8.243118 -28.823868 -2.656440 -10.116209 29.354524 2.143338 -1.334138 4.569791 0.413963 -1.628980 -2.894766 -0.618000 -0.886210 -5.616274 15.186735 8.394046 2.538096 -17.479342 11.588859 -1.240063 -7.598460 5.849739 1.183297 0.000000 0.000000 0.000000 18.516464 12.295060 -61.183626 17.528408 -27.546910 4.330026 25.503738 18.388768 -12.752014 0.000000 0.000000 0.000000 -7.125000 0.000000 0.000000 -1.647852 44.049757 -0.037675 0.000000 0.000000 0.000000 -17.190592 4.684023 61.919876 -14.928807 -24.043824 -3.198684 6.910440 40.947384 -30.128444 0.000000 0.000000 0.000000 7.125000 0.000000 0.000000 21.558099 1.414630 22.703644
10.618975 16.914772 -10.365721 -163.269933 -85.348209 158.991040 0.000000 0.000000 0.000000 -16.405257 16.751539 -20.848248 6.596512 14.982404 47.331134 2.669308 -3.189999 -30.146270 0.057738 -1.522035 -4.187058 0.000000 0.000000 0.000000 23.077810 -9.358705 -14.775850 -5.739036 -14.170438 43.924867 -2.768708 9.604660 -29.996389 -2.886907 -10.509403 30.642812 2.869861 -1.743749 6.746336 0.847907 -2.032870 -1.925202 -0.487520 -1.092834 -5.864329 16.008358 8.305547 2.817292 -18.574814 11.469999 -1.888109 -8.117904 5.810930 1.054261 0.000000 0.000000 0.000000 13.621106 12.220024 -59.995570 13.669360 -22.260003 2.701618 29.029824 19.209018 -13.530094 0.000000 0.000000 0.000000 -7.125000 0.000000 0.000000 1.541505 45.361443 -0.013726 0.000000 0.000000 0.000000 -11.171371 2.514206 51.865771 -11.507828 -19.062515 -1.938544 2.365869 44.184615 -26.986464 0.000000 0.000000 0.000000 7.125000 0.000000 0.000000 19.181453 4.197166 18.835954
10.603968 16.884667 -10.336758 -159.131090 -85.113161 155.121127 0.000000 0.000000 0.000000 -16.072337 17.207031 -21.624215 6.776955 15.141086 48.025440 2.760571 -3.662134 -30.582656 0.076252 -1.768602 -4.866849 0.000000 0.000000 0.000000 23.671051 -7.761812 -14.698371 -5.828427 -14.259948 44.289201 -2.782913 8.715772 -30.105802 -2.776069 -10.321746 30.026493 3.108795 -2.173233 6.711582 1.028025 -2.580861 -1.847972 -0.370813 -1.367812 -5.784081 16.804578 8.425154 3.250297 -18.439659 11.752094 -1.762339 -8.203880 5.972592 1.105696 0.000000 0.000000 0.000000 12.430385 16.709247 -66.497990 14.271192 -23.120845 2.933870 26.487699 14.398046 -14.173810 0.000000 0.000000 0.000000 -7.125000 0.000000 0.000000 -0.919507 45.738553 0.007909 0.000000 0.000000 0.000000 -9.675495 2.922393 52.250153 -14.271647 -23.121212 -2.934268 1.908338 48.794141 -25.570089 0.000000 0.000000 0.000000 7.125000 0.000000 0.000000 18.974032 5.515406 18.108737
10.474480 17.140118 -10.244171 -159.071885 -85.142839 155.935845 0.000000 0.000000 0.000000 -17.242744 15.075538 -18.801510 5.568892 13.996195 43.224137 2.726469 -1.250309 -30.949053 0.051658 -1.464761 -4.028646 0.000000 0.000000 0.000000 23.342204 -7.770233 -13.367330 -4.988950 -13.371209 40.774637 -2.363875 8.003916 -27.683424 -2.786366 -10.340888 30.087989 3.108924 -2.872500 4.835106 1.139533 -3.590648 -1.903727 -0.235360 -1.861904 -4.801034 17.976449 8.651891 3.659741 -18.405150 12.234272 -1.340839 -8.358839 6.232334 1.315016 0.000000 0.000000 0.000000 16.907681 22.859125 -81.461087 20.111160 -30.773474 5.589380 16.674060 5.918099 -10.761763 0.000000 0.000000 0.000000 -7.125000 0.000000 0.000000 -9.221173 41.026974 -0.908725 0.000000 0.000000 0.000000 -12.664207 5.272249 57.551896 -20.279205 -30.975312 -5.675275 0.190182 44.184199 -24.109481 0.000000 0.000000 0.000000 7.125000 0.000000 0.000000 18.026654 6.811436 16.627696
10.427077 17.437204 -10.080339 -161.856260 -84.412771 159.798274 0.000000 0.000000 0.000000 -19.058669 12.699802 -14.608915 3.794476 11.880347 35.311953 2.412156 0.628671 -29.666912 0.084287 -0.439393 -1.200637 0.000000 0.000000 0.000000 22.477627 -6.454099 -17.003894 -5.911751 -14.340668 44.623524 -1.373197 6.021231 -20.993535 -3.189500 -10.993253 32.259844 3.452755 -3.413889 4.001164 1.293828 -4.319760 -2.356267 -0.231240 -2.240383 -4.837744 18.447383 9.134051 4.515160 -18.210302 13.032464 -1.599212 -8.362866 6.669120 1.262947 0.000000 0.000000 0.000000 22.218911 23.786238 -90.933915 23.771716 -34.921894 7.575549 3.182848 6.366375 -7.425136 0.000000 0.000000 0.000000 -7.125000 0.000000 0.000000 -19.788381 36.731669 -4.230112 0.000000 0.000000 0.000000 -16.503555 8.753888 58.851003 -25.238069 -36.445902 -8.431124 1.213548 37.001094 -23.288917 0.000000 0.000000 0.000000 7.125000 0.000000 0.000000 18.668515 7.643083 16.970981
10.459927 17.579661 -9.954120 -168.538554 -85.289978 166.450083 0.000000 0.000000 0.000000 -20.805374 11.653578 -11.695906 2.829122 10.413027 30.324942 2.254038 2.401359 -29.316233 0.013788 0.735046 2.020033 0.000000 0.000000 0.000000 20.830405 -6.319343 -24.058094 -7.717821 -15.907684 51.539701 -1.048595 2.768339 -18.626228 -2.471456 -9.785443 28.285026 1.679628 -4.423639 4.706853 1.753545 -5.740974 -1.954803 1.374222 -2.878289 -4.639179 18.500158 10.001330 5.401828 -19.219072 14.179698 -3.397088 -8.703958 7.290714 0.905167 0.000000 0.000000 0.000000 24.660929 18.213891 -86.432294 26.220288 -37.425122 9.021335 3.578839 12.236490 -9.071182 0.000000 0.000000 0.000000 -7.125000 0.000000 0.000000 -19.907834 38.309595 -3.444286 0.000000 0.000000 0.000000 -21.814670 10.987799 60.082629 -28.068310 -39.179010 -10.166848 3.098870 36.948968 -23.973603 0.000000 0.000000 0.000000 7.125000 0.000000 0.000000 19.742705 7.076718 18.311516
